<?xml version="1.0" encoding="utf-8"?><!DOCTYPE svg PUBLIC "-//W3C//DTD SVG 1.1//EN" "http://www.w3.org/Graphics/SVG/1.1/DTD/svg11.dtd"><svg xmlns:xlink="http://www.w3.org/1999/xlink" xmlns="http://www.w3.org/2000/svg" id="map" viewBox="0 0 225 225" width="1000" height="1000" data-dot="5"><rect x="0" y="0" height="225" width="225" fill="#ffffff"/><defs/><g fill="#000000"><rect x="20" y="190" width="15" height="15" transform="rotate(-90,27.5,197.5)"/><path clip-rule="evenodd" class="svgeye" d="M 10 180v 35h 35v -35zM 15 185h 25v 25h -25z" transform="rotate(-90,27.5,197.5)"/><rect x="190" y="20" width="15" height="15" transform="rotate(90,197.5,27.5)"/><path clip-rule="evenodd" class="svgeye" d="M 180 10v 35h 35v -35zM 185 15h 25v 25h -25z" transform="rotate(90,197.5,27.5)"/><rect x="20" y="20" width="15" height="15" transform="rotate(0,27.5,27.5)"/><path clip-rule="evenodd" class="svgeye" d="M 10 10v 35h 35v -35zM 15 15h 25v 25h -25z" transform="rotate(0,27.5,27.5)"/><rect x="55" y="10" width="5" height="5" transform="rotate(0,57.5,12.5)"/><rect x="70" y="10" width="5" height="5" transform="rotate(0,72.5,12.5)"/><rect x="80" y="10" width="5" height="5" transform="rotate(0,82.5,12.5)"/><rect x="95" y="10" width="5" height="5" transform="rotate(0,97.5,12.5)"/><rect x="100" y="10" width="5" height="5" transform="rotate(0,102.5,12.5)"/><rect x="110" y="10" width="5" height="5" transform="rotate(0,112.5,12.5)"/><rect x="130" y="10" width="5" height="5" transform="rotate(0,132.5,12.5)"/><rect x="135" y="10" width="5" height="5" transform="rotate(0,137.5,12.5)"/><rect x="140" y="10" width="5" height="5" transform="rotate(0,142.5,12.5)"/><rect x="145" y="10" width="5" height="5" transform="rotate(0,147.5,12.5)"/><rect x="150" y="10" width="5" height="5" transform="rotate(0,152.5,12.5)"/><rect x="155" y="10" width="5" height="5" transform="rotate(0,157.5,12.5)"/><rect x="160" y="10" width="5" height="5" transform="rotate(0,162.5,12.5)"/><rect x="55" y="15" width="5" height="5" transform="rotate(0,57.5,17.5)"/><rect x="65" y="15" width="5" height="5" transform="rotate(0,67.5,17.5)"/><rect x="75" y="15" width="5" height="5" transform="rotate(0,77.5,17.5)"/><rect x="85" y="15" width="5" height="5" transform="rotate(0,87.5,17.5)"/><rect x="95" y="15" width="5" height="5" transform="rotate(0,97.5,17.5)"/><rect x="105" y="15" width="5" height="5" transform="rotate(0,107.5,17.5)"/><rect x="110" y="15" width="5" height="5" transform="rotate(0,112.5,17.5)"/><rect x="115" y="15" width="5" height="5" transform="rotate(0,117.5,17.5)"/><rect x="120" y="15" width="5" height="5" transform="rotate(0,122.5,17.5)"/><rect x="125" y="15" width="5" height="5" transform="rotate(0,127.5,17.5)"/><rect x="130" y="15" width="5" height="5" transform="rotate(0,132.5,17.5)"/><rect x="135" y="15" width="5" height="5" transform="rotate(0,137.5,17.5)"/><rect x="140" y="15" width="5" height="5" transform="rotate(0,142.5,17.5)"/><rect x="150" y="15" width="5" height="5" transform="rotate(0,152.5,17.5)"/><rect x="165" y="15" width="5" height="5" transform="rotate(0,167.5,17.5)"/><rect x="50" y="20" width="5" height="5" transform="rotate(0,52.5,22.5)"/><rect x="55" y="20" width="5" height="5" transform="rotate(0,57.5,22.5)"/><rect x="65" y="20" width="5" height="5" transform="rotate(0,67.5,22.5)"/><rect x="70" y="20" width="5" height="5" transform="rotate(0,72.5,22.5)"/><rect x="75" y="20" width="5" height="5" transform="rotate(0,77.5,22.5)"/><rect x="85" y="20" width="5" height="5" transform="rotate(0,87.5,22.5)"/><rect x="95" y="20" width="5" height="5" transform="rotate(0,97.5,22.5)"/><rect x="100" y="20" width="5" height="5" transform="rotate(0,102.5,22.5)"/><rect x="105" y="20" width="5" height="5" transform="rotate(0,107.5,22.5)"/><rect x="115" y="20" width="5" height="5" transform="rotate(0,117.5,22.5)"/><rect x="120" y="20" width="5" height="5" transform="rotate(0,122.5,22.5)"/><rect x="125" y="20" width="5" height="5" transform="rotate(0,127.5,22.5)"/><rect x="130" y="20" width="5" height="5" transform="rotate(0,132.5,22.5)"/><rect x="140" y="20" width="5" height="5" transform="rotate(0,142.5,22.5)"/><rect x="145" y="20" width="5" height="5" transform="rotate(0,147.5,22.5)"/><rect x="150" y="20" width="5" height="5" transform="rotate(0,152.5,22.5)"/><rect x="155" y="20" width="5" height="5" transform="rotate(0,157.5,22.5)"/><rect x="160" y="20" width="5" height="5" transform="rotate(0,162.5,22.5)"/><rect x="170" y="20" width="5" height="5" transform="rotate(0,172.5,22.5)"/><rect x="55" y="25" width="5" height="5" transform="rotate(0,57.5,27.5)"/><rect x="70" y="25" width="5" height="5" transform="rotate(0,72.5,27.5)"/><rect x="75" y="25" width="5" height="5" transform="rotate(0,77.5,27.5)"/><rect x="80" y="25" width="5" height="5" transform="rotate(0,82.5,27.5)"/><rect x="105" y="25" width="5" height="5" transform="rotate(0,107.5,27.5)"/><rect x="110" y="25" width="5" height="5" transform="rotate(0,112.5,27.5)"/><rect x="115" y="25" width="5" height="5" transform="rotate(0,117.5,27.5)"/><rect x="125" y="25" width="5" height="5" transform="rotate(0,127.5,27.5)"/><rect x="130" y="25" width="5" height="5" transform="rotate(0,132.5,27.5)"/><rect x="145" y="25" width="5" height="5" transform="rotate(0,147.5,27.5)"/><rect x="160" y="25" width="5" height="5" transform="rotate(0,162.5,27.5)"/><rect x="165" y="25" width="5" height="5" transform="rotate(0,167.5,27.5)"/><rect x="170" y="25" width="5" height="5" transform="rotate(0,172.5,27.5)"/><rect x="50" y="30" width="5" height="5" transform="rotate(0,52.5,32.5)"/><rect x="55" y="30" width="5" height="5" transform="rotate(0,57.5,32.5)"/><rect x="60" y="30" width="5" height="5" transform="rotate(0,62.5,32.5)"/><rect x="65" y="30" width="5" height="5" transform="rotate(0,67.5,32.5)"/><rect x="70" y="30" width="5" height="5" transform="rotate(0,72.5,32.5)"/><rect x="80" y="30" width="5" height="5" transform="rotate(0,82.5,32.5)"/><rect x="90" y="30" width="5" height="5" transform="rotate(0,92.5,32.5)"/><rect x="95" y="30" width="5" height="5" transform="rotate(0,97.5,32.5)"/><rect x="105" y="30" width="5" height="5" transform="rotate(0,107.5,32.5)"/><rect x="110" y="30" width="5" height="5" transform="rotate(0,112.5,32.5)"/><rect x="115" y="30" width="5" height="5" transform="rotate(0,117.5,32.5)"/><rect x="125" y="30" width="5" height="5" transform="rotate(0,127.5,32.5)"/><rect x="130" y="30" width="5" height="5" transform="rotate(0,132.5,32.5)"/><rect x="135" y="30" width="5" height="5" transform="rotate(0,137.5,32.5)"/><rect x="145" y="30" width="5" height="5" transform="rotate(0,147.5,32.5)"/><rect x="150" y="30" width="5" height="5" transform="rotate(0,152.5,32.5)"/><rect x="160" y="30" width="5" height="5" transform="rotate(0,162.5,32.5)"/><rect x="50" y="35" width="5" height="5" transform="rotate(0,52.5,37.5)"/><rect x="55" y="35" width="5" height="5" transform="rotate(0,57.5,37.5)"/><rect x="75" y="35" width="5" height="5" transform="rotate(0,77.5,37.5)"/><rect x="90" y="35" width="5" height="5" transform="rotate(0,92.5,37.5)"/><rect x="105" y="35" width="5" height="5" transform="rotate(0,107.5,37.5)"/><rect x="125" y="35" width="5" height="5" transform="rotate(0,127.5,37.5)"/><rect x="130" y="35" width="5" height="5" transform="rotate(0,132.5,37.5)"/><rect x="160" y="35" width="5" height="5" transform="rotate(0,162.5,37.5)"/><rect x="165" y="35" width="5" height="5" transform="rotate(0,167.5,37.5)"/><rect x="50" y="40" width="5" height="5" transform="rotate(0,52.5,42.5)"/><rect x="60" y="40" width="5" height="5" transform="rotate(0,62.5,42.5)"/><rect x="70" y="40" width="5" height="5" transform="rotate(0,72.5,42.5)"/><rect x="80" y="40" width="5" height="5" transform="rotate(0,82.5,42.5)"/><rect x="90" y="40" width="5" height="5" transform="rotate(0,92.5,42.5)"/><rect x="100" y="40" width="5" height="5" transform="rotate(0,102.5,42.5)"/><rect x="110" y="40" width="5" height="5" transform="rotate(0,112.5,42.5)"/><rect x="120" y="40" width="5" height="5" transform="rotate(0,122.5,42.5)"/><rect x="130" y="40" width="5" height="5" transform="rotate(0,132.5,42.5)"/><rect x="140" y="40" width="5" height="5" transform="rotate(0,142.5,42.5)"/><rect x="150" y="40" width="5" height="5" transform="rotate(0,152.5,42.5)"/><rect x="160" y="40" width="5" height="5" transform="rotate(0,162.5,42.5)"/><rect x="170" y="40" width="5" height="5" transform="rotate(0,172.5,42.5)"/><rect x="55" y="45" width="5" height="5" transform="rotate(0,57.5,47.5)"/><rect x="60" y="45" width="5" height="5" transform="rotate(0,62.5,47.5)"/><rect x="65" y="45" width="5" height="5" transform="rotate(0,67.5,47.5)"/><rect x="75" y="45" width="5" height="5" transform="rotate(0,77.5,47.5)"/><rect x="80" y="45" width="5" height="5" transform="rotate(0,82.5,47.5)"/><rect x="85" y="45" width="5" height="5" transform="rotate(0,87.5,47.5)"/><rect x="100" y="45" width="5" height="5" transform="rotate(0,102.5,47.5)"/><rect x="110" y="45" width="5" height="5" transform="rotate(0,112.5,47.5)"/><rect x="115" y="45" width="5" height="5" transform="rotate(0,117.5,47.5)"/><rect x="120" y="45" width="5" height="5" transform="rotate(0,122.5,47.5)"/><rect x="125" y="45" width="5" height="5" transform="rotate(0,127.5,47.5)"/><rect x="130" y="45" width="5" height="5" transform="rotate(0,132.5,47.5)"/><rect x="140" y="45" width="5" height="5" transform="rotate(0,142.5,47.5)"/><rect x="145" y="45" width="5" height="5" transform="rotate(0,147.5,47.5)"/><rect x="150" y="45" width="5" height="5" transform="rotate(0,152.5,47.5)"/><rect x="155" y="45" width="5" height="5" transform="rotate(0,157.5,47.5)"/><rect x="165" y="45" width="5" height="5" transform="rotate(0,167.5,47.5)"/><rect x="170" y="45" width="5" height="5" transform="rotate(0,172.5,47.5)"/><rect x="15" y="50" width="5" height="5" transform="rotate(0,17.5,52.5)"/><rect x="30" y="50" width="5" height="5" transform="rotate(0,32.5,52.5)"/><rect x="40" y="50" width="5" height="5" transform="rotate(0,42.5,52.5)"/><rect x="50" y="50" width="5" height="5" transform="rotate(0,52.5,52.5)"/><rect x="65" y="50" width="5" height="5" transform="rotate(0,67.5,52.5)"/><rect x="70" y="50" width="5" height="5" transform="rotate(0,72.5,52.5)"/><rect x="80" y="50" width="5" height="5" transform="rotate(0,82.5,52.5)"/><rect x="85" y="50" width="5" height="5" transform="rotate(0,87.5,52.5)"/><rect x="90" y="50" width="5" height="5" transform="rotate(0,92.5,52.5)"/><rect x="95" y="50" width="5" height="5" transform="rotate(0,97.5,52.5)"/><rect x="105" y="50" width="5" height="5" transform="rotate(0,107.5,52.5)"/><rect x="110" y="50" width="5" height="5" transform="rotate(0,112.5,52.5)"/><rect x="115" y="50" width="5" height="5" transform="rotate(0,117.5,52.5)"/><rect x="125" y="50" width="5" height="5" transform="rotate(0,127.5,52.5)"/><rect x="155" y="50" width="5" height="5" transform="rotate(0,157.5,52.5)"/><rect x="175" y="50" width="5" height="5" transform="rotate(0,177.5,52.5)"/><rect x="185" y="50" width="5" height="5" transform="rotate(0,187.5,52.5)"/><rect x="190" y="50" width="5" height="5" transform="rotate(0,192.5,52.5)"/><rect x="200" y="50" width="5" height="5" transform="rotate(0,202.5,52.5)"/><rect x="15" y="55" width="5" height="5" transform="rotate(0,17.5,57.5)"/><rect x="30" y="55" width="5" height="5" transform="rotate(0,32.5,57.5)"/><rect x="45" y="55" width="5" height="5" transform="rotate(0,47.5,57.5)"/><rect x="50" y="55" width="5" height="5" transform="rotate(0,52.5,57.5)"/><rect x="55" y="55" width="5" height="5" transform="rotate(0,57.5,57.5)"/><rect x="60" y="55" width="5" height="5" transform="rotate(0,62.5,57.5)"/><rect x="75" y="55" width="5" height="5" transform="rotate(0,77.5,57.5)"/><rect x="80" y="55" width="5" height="5" transform="rotate(0,82.5,57.5)"/><rect x="85" y="55" width="5" height="5" transform="rotate(0,87.5,57.5)"/><rect x="95" y="55" width="5" height="5" transform="rotate(0,97.5,57.5)"/><rect x="110" y="55" width="5" height="5" transform="rotate(0,112.5,57.5)"/><rect x="115" y="55" width="5" height="5" transform="rotate(0,117.5,57.5)"/><rect x="135" y="55" width="5" height="5" transform="rotate(0,137.5,57.5)"/><rect x="140" y="55" width="5" height="5" transform="rotate(0,142.5,57.5)"/><rect x="145" y="55" width="5" height="5" transform="rotate(0,147.5,57.5)"/><rect x="150" y="55" width="5" height="5" transform="rotate(0,152.5,57.5)"/><rect x="160" y="55" width="5" height="5" transform="rotate(0,162.5,57.5)"/><rect x="175" y="55" width="5" height="5" transform="rotate(0,177.5,57.5)"/><rect x="180" y="55" width="5" height="5" transform="rotate(0,182.5,57.5)"/><rect x="190" y="55" width="5" height="5" transform="rotate(0,192.5,57.5)"/><rect x="195" y="55" width="5" height="5" transform="rotate(0,197.5,57.5)"/><rect x="205" y="55" width="5" height="5" transform="rotate(0,207.5,57.5)"/><rect x="210" y="55" width="5" height="5" transform="rotate(0,212.5,57.5)"/><rect x="10" y="60" width="5" height="5" transform="rotate(0,12.5,62.5)"/><rect x="35" y="60" width="5" height="5" transform="rotate(0,37.5,62.5)"/><rect x="40" y="60" width="5" height="5" transform="rotate(0,42.5,62.5)"/><rect x="70" y="60" width="5" height="5" transform="rotate(0,72.5,62.5)"/><rect x="75" y="60" width="5" height="5" transform="rotate(0,77.5,62.5)"/><rect x="80" y="60" width="5" height="5" transform="rotate(0,82.5,62.5)"/><rect x="85" y="60" width="5" height="5" transform="rotate(0,87.5,62.5)"/><rect x="95" y="60" width="5" height="5" transform="rotate(0,97.5,62.5)"/><rect x="105" y="60" width="5" height="5" transform="rotate(0,107.5,62.5)"/><rect x="110" y="60" width="5" height="5" transform="rotate(0,112.5,62.5)"/><rect x="115" y="60" width="5" height="5" transform="rotate(0,117.5,62.5)"/><rect x="120" y="60" width="5" height="5" transform="rotate(0,122.5,62.5)"/><rect x="145" y="60" width="5" height="5" transform="rotate(0,147.5,62.5)"/><rect x="150" y="60" width="5" height="5" transform="rotate(0,152.5,62.5)"/><rect x="170" y="60" width="5" height="5" transform="rotate(0,172.5,62.5)"/><rect x="175" y="60" width="5" height="5" transform="rotate(0,177.5,62.5)"/><rect x="190" y="60" width="5" height="5" transform="rotate(0,192.5,62.5)"/><rect x="210" y="60" width="5" height="5" transform="rotate(0,212.5,62.5)"/><rect x="15" y="65" width="5" height="5" transform="rotate(0,17.5,67.5)"/><rect x="25" y="65" width="5" height="5" transform="rotate(0,27.5,67.5)"/><rect x="35" y="65" width="5" height="5" transform="rotate(0,37.5,67.5)"/><rect x="45" y="65" width="5" height="5" transform="rotate(0,47.5,67.5)"/><rect x="50" y="65" width="5" height="5" transform="rotate(0,52.5,67.5)"/><rect x="55" y="65" width="5" height="5" transform="rotate(0,57.5,67.5)"/><rect x="70" y="65" width="5" height="5" transform="rotate(0,72.5,67.5)"/><rect x="80" y="65" width="5" height="5" transform="rotate(0,82.5,67.5)"/><rect x="105" y="65" width="5" height="5" transform="rotate(0,107.5,67.5)"/><rect x="120" y="65" width="5" height="5" transform="rotate(0,122.5,67.5)"/><rect x="125" y="65" width="5" height="5" transform="rotate(0,127.5,67.5)"/><rect x="155" y="65" width="5" height="5" transform="rotate(0,157.5,67.5)"/><rect x="165" y="65" width="5" height="5" transform="rotate(0,167.5,67.5)"/><rect x="170" y="65" width="5" height="5" transform="rotate(0,172.5,67.5)"/><rect x="180" y="65" width="5" height="5" transform="rotate(0,182.5,67.5)"/><rect x="185" y="65" width="5" height="5" transform="rotate(0,187.5,67.5)"/><rect x="195" y="65" width="5" height="5" transform="rotate(0,197.5,67.5)"/><rect x="205" y="65" width="5" height="5" transform="rotate(0,207.5,67.5)"/><rect x="20" y="70" width="5" height="5" transform="rotate(0,22.5,72.5)"/><rect x="35" y="70" width="5" height="5" transform="rotate(0,37.5,72.5)"/><rect x="40" y="70" width="5" height="5" transform="rotate(0,42.5,72.5)"/><rect x="45" y="70" width="5" height="5" transform="rotate(0,47.5,72.5)"/><rect x="50" y="70" width="5" height="5" transform="rotate(0,52.5,72.5)"/><rect x="60" y="70" width="5" height="5" transform="rotate(0,62.5,72.5)"/><rect x="65" y="70" width="5" height="5" transform="rotate(0,67.5,72.5)"/><rect x="70" y="70" width="5" height="5" transform="rotate(0,72.5,72.5)"/><rect x="145" y="70" width="5" height="5" transform="rotate(0,147.5,72.5)"/><rect x="155" y="70" width="5" height="5" transform="rotate(0,157.5,72.5)"/><rect x="170" y="70" width="5" height="5" transform="rotate(0,172.5,72.5)"/><rect x="210" y="70" width="5" height="5" transform="rotate(0,212.5,72.5)"/><rect x="10" y="75" width="5" height="5" transform="rotate(0,12.5,77.5)"/><rect x="25" y="75" width="5" height="5" transform="rotate(0,27.5,77.5)"/><rect x="35" y="75" width="5" height="5" transform="rotate(0,37.5,77.5)"/><rect x="55" y="75" width="5" height="5" transform="rotate(0,57.5,77.5)"/><rect x="75" y="75" width="5" height="5" transform="rotate(0,77.5,77.5)"/><rect x="80" y="75" width="5" height="5" transform="rotate(0,82.5,77.5)"/><rect x="85" y="75" width="5" height="5" transform="rotate(0,87.5,77.5)"/><rect x="100" y="75" width="5" height="5" transform="rotate(0,102.5,77.5)"/><rect x="115" y="75" width="5" height="5" transform="rotate(0,117.5,77.5)"/><rect x="130" y="75" width="5" height="5" transform="rotate(0,132.5,77.5)"/><rect x="150" y="75" width="5" height="5" transform="rotate(0,152.5,77.5)"/><rect x="160" y="75" width="5" height="5" transform="rotate(0,162.5,77.5)"/><rect x="180" y="75" width="5" height="5" transform="rotate(0,182.5,77.5)"/><rect x="190" y="75" width="5" height="5" transform="rotate(0,192.5,77.5)"/><rect x="210" y="75" width="5" height="5" transform="rotate(0,212.5,77.5)"/><rect x="10" y="80" width="5" height="5" transform="rotate(0,12.5,82.5)"/><rect x="15" y="80" width="5" height="5" transform="rotate(0,17.5,82.5)"/><rect x="20" y="80" width="5" height="5" transform="rotate(0,22.5,82.5)"/><rect x="35" y="80" width="5" height="5" transform="rotate(0,37.5,82.5)"/><rect x="40" y="80" width="5" height="5" transform="rotate(0,42.5,82.5)"/><rect x="45" y="80" width="5" height="5" transform="rotate(0,47.5,82.5)"/><rect x="50" y="80" width="5" height="5" transform="rotate(0,52.5,82.5)"/><rect x="55" y="80" width="5" height="5" transform="rotate(0,57.5,82.5)"/><rect x="65" y="80" width="5" height="5" transform="rotate(0,67.5,82.5)"/><rect x="75" y="80" width="5" height="5" transform="rotate(0,77.5,82.5)"/><rect x="90" y="80" width="5" height="5" transform="rotate(0,92.5,82.5)"/><rect x="105" y="80" width="5" height="5" transform="rotate(0,107.5,82.5)"/><rect x="115" y="80" width="5" height="5" transform="rotate(0,117.5,82.5)"/><rect x="120" y="80" width="5" height="5" transform="rotate(0,122.5,82.5)"/><rect x="125" y="80" width="5" height="5" transform="rotate(0,127.5,82.5)"/><rect x="130" y="80" width="5" height="5" transform="rotate(0,132.5,82.5)"/><rect x="135" y="80" width="5" height="5" transform="rotate(0,137.5,82.5)"/><rect x="140" y="80" width="5" height="5" transform="rotate(0,142.5,82.5)"/><rect x="150" y="80" width="5" height="5" transform="rotate(0,152.5,82.5)"/><rect x="170" y="80" width="5" height="5" transform="rotate(0,172.5,82.5)"/><rect x="175" y="80" width="5" height="5" transform="rotate(0,177.5,82.5)"/><rect x="180" y="80" width="5" height="5" transform="rotate(0,182.5,82.5)"/><rect x="200" y="80" width="5" height="5" transform="rotate(0,202.5,82.5)"/><rect x="210" y="80" width="5" height="5" transform="rotate(0,212.5,82.5)"/><rect x="15" y="85" width="5" height="5" transform="rotate(0,17.5,87.5)"/><rect x="20" y="85" width="5" height="5" transform="rotate(0,22.5,87.5)"/><rect x="30" y="85" width="5" height="5" transform="rotate(0,32.5,87.5)"/><rect x="45" y="85" width="5" height="5" transform="rotate(0,47.5,87.5)"/><rect x="55" y="85" width="5" height="5" transform="rotate(0,57.5,87.5)"/><rect x="65" y="85" width="5" height="5" transform="rotate(0,67.5,87.5)"/><rect x="70" y="85" width="5" height="5" transform="rotate(0,72.5,87.5)"/><rect x="75" y="85" width="5" height="5" transform="rotate(0,77.5,87.5)"/><rect x="95" y="85" width="5" height="5" transform="rotate(0,97.5,87.5)"/><rect x="100" y="85" width="5" height="5" transform="rotate(0,102.5,87.5)"/><rect x="105" y="85" width="5" height="5" transform="rotate(0,107.5,87.5)"/><rect x="115" y="85" width="5" height="5" transform="rotate(0,117.5,87.5)"/><rect x="125" y="85" width="5" height="5" transform="rotate(0,127.5,87.5)"/><rect x="155" y="85" width="5" height="5" transform="rotate(0,157.5,87.5)"/><rect x="160" y="85" width="5" height="5" transform="rotate(0,162.5,87.5)"/><rect x="165" y="85" width="5" height="5" transform="rotate(0,167.5,87.5)"/><rect x="190" y="85" width="5" height="5" transform="rotate(0,192.5,87.5)"/><rect x="195" y="85" width="5" height="5" transform="rotate(0,197.5,87.5)"/><rect x="205" y="85" width="5" height="5" transform="rotate(0,207.5,87.5)"/><rect x="210" y="85" width="5" height="5" transform="rotate(0,212.5,87.5)"/><rect x="15" y="90" width="5" height="5" transform="rotate(0,17.5,92.5)"/><rect x="20" y="90" width="5" height="5" transform="rotate(0,22.5,92.5)"/><rect x="25" y="90" width="5" height="5" transform="rotate(0,27.5,92.5)"/><rect x="30" y="90" width="5" height="5" transform="rotate(0,32.5,92.5)"/><rect x="35" y="90" width="5" height="5" transform="rotate(0,37.5,92.5)"/><rect x="40" y="90" width="5" height="5" transform="rotate(0,42.5,92.5)"/><rect x="70" y="90" width="5" height="5" transform="rotate(0,72.5,92.5)"/><rect x="75" y="90" width="5" height="5" transform="rotate(0,77.5,92.5)"/><rect x="85" y="90" width="5" height="5" transform="rotate(0,87.5,92.5)"/><rect x="90" y="90" width="5" height="5" transform="rotate(0,92.5,92.5)"/><rect x="95" y="90" width="5" height="5" transform="rotate(0,97.5,92.5)"/><rect x="100" y="90" width="5" height="5" transform="rotate(0,102.5,92.5)"/><rect x="130" y="90" width="5" height="5" transform="rotate(0,132.5,92.5)"/><rect x="145" y="90" width="5" height="5" transform="rotate(0,147.5,92.5)"/><rect x="155" y="90" width="5" height="5" transform="rotate(0,157.5,92.5)"/><rect x="165" y="90" width="5" height="5" transform="rotate(0,167.5,92.5)"/><rect x="185" y="90" width="5" height="5" transform="rotate(0,187.5,92.5)"/><rect x="195" y="90" width="5" height="5" transform="rotate(0,197.5,92.5)"/><rect x="205" y="90" width="5" height="5" transform="rotate(0,207.5,92.5)"/><rect x="20" y="95" width="5" height="5" transform="rotate(0,22.5,97.5)"/><rect x="30" y="95" width="5" height="5" transform="rotate(0,32.5,97.5)"/><rect x="35" y="95" width="5" height="5" transform="rotate(0,37.5,97.5)"/><rect x="50" y="95" width="5" height="5" transform="rotate(0,52.5,97.5)"/><rect x="55" y="95" width="5" height="5" transform="rotate(0,57.5,97.5)"/><rect x="65" y="95" width="5" height="5" transform="rotate(0,67.5,97.5)"/><rect x="70" y="95" width="5" height="5" transform="rotate(0,72.5,97.5)"/><rect x="90" y="95" width="5" height="5" transform="rotate(0,92.5,97.5)"/><rect x="95" y="95" width="5" height="5" transform="rotate(0,97.5,97.5)"/><rect x="110" y="95" width="5" height="5" transform="rotate(0,112.5,97.5)"/><rect x="115" y="95" width="5" height="5" transform="rotate(0,117.5,97.5)"/><rect x="120" y="95" width="5" height="5" transform="rotate(0,122.5,97.5)"/><rect x="125" y="95" width="5" height="5" transform="rotate(0,127.5,97.5)"/><rect x="140" y="95" width="5" height="5" transform="rotate(0,142.5,97.5)"/><rect x="145" y="95" width="5" height="5" transform="rotate(0,147.5,97.5)"/><rect x="150" y="95" width="5" height="5" transform="rotate(0,152.5,97.5)"/><rect x="155" y="95" width="5" height="5" transform="rotate(0,157.5,97.5)"/><rect x="160" y="95" width="5" height="5" transform="rotate(0,162.5,97.5)"/><rect x="170" y="95" width="5" height="5" transform="rotate(0,172.5,97.5)"/><rect x="175" y="95" width="5" height="5" transform="rotate(0,177.5,97.5)"/><rect x="180" y="95" width="5" height="5" transform="rotate(0,182.5,97.5)"/><rect x="185" y="95" width="5" height="5" transform="rotate(0,187.5,97.5)"/><rect x="190" y="95" width="5" height="5" transform="rotate(0,192.5,97.5)"/><rect x="195" y="95" width="5" height="5" transform="rotate(0,197.5,97.5)"/><rect x="200" y="95" width="5" height="5" transform="rotate(0,202.5,97.5)"/><rect x="210" y="95" width="5" height="5" transform="rotate(0,212.5,97.5)"/><rect x="10" y="100" width="5" height="5" transform="rotate(0,12.5,102.5)"/><rect x="20" y="100" width="5" height="5" transform="rotate(0,22.5,102.5)"/><rect x="25" y="100" width="5" height="5" transform="rotate(0,27.5,102.5)"/><rect x="30" y="100" width="5" height="5" transform="rotate(0,32.5,102.5)"/><rect x="35" y="100" width="5" height="5" transform="rotate(0,37.5,102.5)"/><rect x="40" y="100" width="5" height="5" transform="rotate(0,42.5,102.5)"/><rect x="60" y="100" width="5" height="5" transform="rotate(0,62.5,102.5)"/><rect x="75" y="100" width="5" height="5" transform="rotate(0,77.5,102.5)"/><rect x="80" y="100" width="5" height="5" transform="rotate(0,82.5,102.5)"/><rect x="100" y="100" width="5" height="5" transform="rotate(0,102.5,102.5)"/><rect x="110" y="100" width="5" height="5" transform="rotate(0,112.5,102.5)"/><rect x="120" y="100" width="5" height="5" transform="rotate(0,122.5,102.5)"/><rect x="125" y="100" width="5" height="5" transform="rotate(0,127.5,102.5)"/><rect x="135" y="100" width="5" height="5" transform="rotate(0,137.5,102.5)"/><rect x="140" y="100" width="5" height="5" transform="rotate(0,142.5,102.5)"/><rect x="145" y="100" width="5" height="5" transform="rotate(0,147.5,102.5)"/><rect x="150" y="100" width="5" height="5" transform="rotate(0,152.5,102.5)"/><rect x="155" y="100" width="5" height="5" transform="rotate(0,157.5,102.5)"/><rect x="185" y="100" width="5" height="5" transform="rotate(0,187.5,102.5)"/><rect x="195" y="100" width="5" height="5" transform="rotate(0,197.5,102.5)"/><rect x="205" y="100" width="5" height="5" transform="rotate(0,207.5,102.5)"/><rect x="210" y="100" width="5" height="5" transform="rotate(0,212.5,102.5)"/><rect x="15" y="105" width="5" height="5" transform="rotate(0,17.5,107.5)"/><rect x="25" y="105" width="5" height="5" transform="rotate(0,27.5,107.5)"/><rect x="30" y="105" width="5" height="5" transform="rotate(0,32.5,107.5)"/><rect x="50" y="105" width="5" height="5" transform="rotate(0,52.5,107.5)"/><rect x="60" y="105" width="5" height="5" transform="rotate(0,62.5,107.5)"/><rect x="75" y="105" width="5" height="5" transform="rotate(0,77.5,107.5)"/><rect x="80" y="105" width="5" height="5" transform="rotate(0,82.5,107.5)"/><rect x="90" y="105" width="5" height="5" transform="rotate(0,92.5,107.5)"/><rect x="95" y="105" width="5" height="5" transform="rotate(0,97.5,107.5)"/><rect x="105" y="105" width="5" height="5" transform="rotate(0,107.5,107.5)"/><rect x="110" y="105" width="5" height="5" transform="rotate(0,112.5,107.5)"/><rect x="115" y="105" width="5" height="5" transform="rotate(0,117.5,107.5)"/><rect x="120" y="105" width="5" height="5" transform="rotate(0,122.5,107.5)"/><rect x="130" y="105" width="5" height="5" transform="rotate(0,132.5,107.5)"/><rect x="135" y="105" width="5" height="5" transform="rotate(0,137.5,107.5)"/><rect x="155" y="105" width="5" height="5" transform="rotate(0,157.5,107.5)"/><rect x="160" y="105" width="5" height="5" transform="rotate(0,162.5,107.5)"/><rect x="170" y="105" width="5" height="5" transform="rotate(0,172.5,107.5)"/><rect x="185" y="105" width="5" height="5" transform="rotate(0,187.5,107.5)"/><rect x="195" y="105" width="5" height="5" transform="rotate(0,197.5,107.5)"/><rect x="210" y="105" width="5" height="5" transform="rotate(0,212.5,107.5)"/><rect x="20" y="110" width="5" height="5" transform="rotate(0,22.5,112.5)"/><rect x="25" y="110" width="5" height="5" transform="rotate(0,27.5,112.5)"/><rect x="40" y="110" width="5" height="5" transform="rotate(0,42.5,112.5)"/><rect x="50" y="110" width="5" height="5" transform="rotate(0,52.5,112.5)"/><rect x="55" y="110" width="5" height="5" transform="rotate(0,57.5,112.5)"/><rect x="65" y="110" width="5" height="5" transform="rotate(0,67.5,112.5)"/><rect x="70" y="110" width="5" height="5" transform="rotate(0,72.5,112.5)"/><rect x="105" y="110" width="5" height="5" transform="rotate(0,107.5,112.5)"/><rect x="120" y="110" width="5" height="5" transform="rotate(0,122.5,112.5)"/><rect x="125" y="110" width="5" height="5" transform="rotate(0,127.5,112.5)"/><rect x="130" y="110" width="5" height="5" transform="rotate(0,132.5,112.5)"/><rect x="135" y="110" width="5" height="5" transform="rotate(0,137.5,112.5)"/><rect x="145" y="110" width="5" height="5" transform="rotate(0,147.5,112.5)"/><rect x="150" y="110" width="5" height="5" transform="rotate(0,152.5,112.5)"/><rect x="160" y="110" width="5" height="5" transform="rotate(0,162.5,112.5)"/><rect x="165" y="110" width="5" height="5" transform="rotate(0,167.5,112.5)"/><rect x="170" y="110" width="5" height="5" transform="rotate(0,172.5,112.5)"/><rect x="175" y="110" width="5" height="5" transform="rotate(0,177.5,112.5)"/><rect x="195" y="110" width="5" height="5" transform="rotate(0,197.5,112.5)"/><rect x="205" y="110" width="5" height="5" transform="rotate(0,207.5,112.5)"/><rect x="15" y="115" width="5" height="5" transform="rotate(0,17.5,117.5)"/><rect x="20" y="115" width="5" height="5" transform="rotate(0,22.5,117.5)"/><rect x="35" y="115" width="5" height="5" transform="rotate(0,37.5,117.5)"/><rect x="50" y="115" width="5" height="5" transform="rotate(0,52.5,117.5)"/><rect x="55" y="115" width="5" height="5" transform="rotate(0,57.5,117.5)"/><rect x="65" y="115" width="5" height="5" transform="rotate(0,67.5,117.5)"/><rect x="70" y="115" width="5" height="5" transform="rotate(0,72.5,117.5)"/><rect x="80" y="115" width="5" height="5" transform="rotate(0,82.5,117.5)"/><rect x="85" y="115" width="5" height="5" transform="rotate(0,87.5,117.5)"/><rect x="90" y="115" width="5" height="5" transform="rotate(0,92.5,117.5)"/><rect x="95" y="115" width="5" height="5" transform="rotate(0,97.5,117.5)"/><rect x="105" y="115" width="5" height="5" transform="rotate(0,107.5,117.5)"/><rect x="115" y="115" width="5" height="5" transform="rotate(0,117.5,117.5)"/><rect x="125" y="115" width="5" height="5" transform="rotate(0,127.5,117.5)"/><rect x="140" y="115" width="5" height="5" transform="rotate(0,142.5,117.5)"/><rect x="145" y="115" width="5" height="5" transform="rotate(0,147.5,117.5)"/><rect x="150" y="115" width="5" height="5" transform="rotate(0,152.5,117.5)"/><rect x="155" y="115" width="5" height="5" transform="rotate(0,157.5,117.5)"/><rect x="160" y="115" width="5" height="5" transform="rotate(0,162.5,117.5)"/><rect x="175" y="115" width="5" height="5" transform="rotate(0,177.5,117.5)"/><rect x="180" y="115" width="5" height="5" transform="rotate(0,182.5,117.5)"/><rect x="185" y="115" width="5" height="5" transform="rotate(0,187.5,117.5)"/><rect x="190" y="115" width="5" height="5" transform="rotate(0,192.5,117.5)"/><rect x="195" y="115" width="5" height="5" transform="rotate(0,197.5,117.5)"/><rect x="210" y="115" width="5" height="5" transform="rotate(0,212.5,117.5)"/><rect x="20" y="120" width="5" height="5" transform="rotate(0,22.5,122.5)"/><rect x="35" y="120" width="5" height="5" transform="rotate(0,37.5,122.5)"/><rect x="40" y="120" width="5" height="5" transform="rotate(0,42.5,122.5)"/><rect x="45" y="120" width="5" height="5" transform="rotate(0,47.5,122.5)"/><rect x="50" y="120" width="5" height="5" transform="rotate(0,52.5,122.5)"/><rect x="60" y="120" width="5" height="5" transform="rotate(0,62.5,122.5)"/><rect x="65" y="120" width="5" height="5" transform="rotate(0,67.5,122.5)"/><rect x="70" y="120" width="5" height="5" transform="rotate(0,72.5,122.5)"/><rect x="75" y="120" width="5" height="5" transform="rotate(0,77.5,122.5)"/><rect x="80" y="120" width="5" height="5" transform="rotate(0,82.5,122.5)"/><rect x="95" y="120" width="5" height="5" transform="rotate(0,97.5,122.5)"/><rect x="100" y="120" width="5" height="5" transform="rotate(0,102.5,122.5)"/><rect x="105" y="120" width="5" height="5" transform="rotate(0,107.5,122.5)"/><rect x="115" y="120" width="5" height="5" transform="rotate(0,117.5,122.5)"/><rect x="125" y="120" width="5" height="5" transform="rotate(0,127.5,122.5)"/><rect x="135" y="120" width="5" height="5" transform="rotate(0,137.5,122.5)"/><rect x="140" y="120" width="5" height="5" transform="rotate(0,142.5,122.5)"/><rect x="145" y="120" width="5" height="5" transform="rotate(0,147.5,122.5)"/><rect x="155" y="120" width="5" height="5" transform="rotate(0,157.5,122.5)"/><rect x="160" y="120" width="5" height="5" transform="rotate(0,162.5,122.5)"/><rect x="185" y="120" width="5" height="5" transform="rotate(0,187.5,122.5)"/><rect x="195" y="120" width="5" height="5" transform="rotate(0,197.5,122.5)"/><rect x="210" y="120" width="5" height="5" transform="rotate(0,212.5,122.5)"/><rect x="10" y="125" width="5" height="5" transform="rotate(0,12.5,127.5)"/><rect x="15" y="125" width="5" height="5" transform="rotate(0,17.5,127.5)"/><rect x="35" y="125" width="5" height="5" transform="rotate(0,37.5,127.5)"/><rect x="50" y="125" width="5" height="5" transform="rotate(0,52.5,127.5)"/><rect x="55" y="125" width="5" height="5" transform="rotate(0,57.5,127.5)"/><rect x="60" y="125" width="5" height="5" transform="rotate(0,62.5,127.5)"/><rect x="70" y="125" width="5" height="5" transform="rotate(0,72.5,127.5)"/><rect x="85" y="125" width="5" height="5" transform="rotate(0,87.5,127.5)"/><rect x="105" y="125" width="5" height="5" transform="rotate(0,107.5,127.5)"/><rect x="110" y="125" width="5" height="5" transform="rotate(0,112.5,127.5)"/><rect x="125" y="125" width="5" height="5" transform="rotate(0,127.5,127.5)"/><rect x="130" y="125" width="5" height="5" transform="rotate(0,132.5,127.5)"/><rect x="140" y="125" width="5" height="5" transform="rotate(0,142.5,127.5)"/><rect x="145" y="125" width="5" height="5" transform="rotate(0,147.5,127.5)"/><rect x="150" y="125" width="5" height="5" transform="rotate(0,152.5,127.5)"/><rect x="155" y="125" width="5" height="5" transform="rotate(0,157.5,127.5)"/><rect x="170" y="125" width="5" height="5" transform="rotate(0,172.5,127.5)"/><rect x="195" y="125" width="5" height="5" transform="rotate(0,197.5,127.5)"/><rect x="205" y="125" width="5" height="5" transform="rotate(0,207.5,127.5)"/><rect x="10" y="130" width="5" height="5" transform="rotate(0,12.5,132.5)"/><rect x="15" y="130" width="5" height="5" transform="rotate(0,17.5,132.5)"/><rect x="30" y="130" width="5" height="5" transform="rotate(0,32.5,132.5)"/><rect x="40" y="130" width="5" height="5" transform="rotate(0,42.5,132.5)"/><rect x="50" y="130" width="5" height="5" transform="rotate(0,52.5,132.5)"/><rect x="55" y="130" width="5" height="5" transform="rotate(0,57.5,132.5)"/><rect x="60" y="130" width="5" height="5" transform="rotate(0,62.5,132.5)"/><rect x="65" y="130" width="5" height="5" transform="rotate(0,67.5,132.5)"/><rect x="70" y="130" width="5" height="5" transform="rotate(0,72.5,132.5)"/><rect x="75" y="130" width="5" height="5" transform="rotate(0,77.5,132.5)"/><rect x="110" y="130" width="5" height="5" transform="rotate(0,112.5,132.5)"/><rect x="115" y="130" width="5" height="5" transform="rotate(0,117.5,132.5)"/><rect x="120" y="130" width="5" height="5" transform="rotate(0,122.5,132.5)"/><rect x="130" y="130" width="5" height="5" transform="rotate(0,132.5,132.5)"/><rect x="155" y="130" width="5" height="5" transform="rotate(0,157.5,132.5)"/><rect x="165" y="130" width="5" height="5" transform="rotate(0,167.5,132.5)"/><rect x="170" y="130" width="5" height="5" transform="rotate(0,172.5,132.5)"/><rect x="175" y="130" width="5" height="5" transform="rotate(0,177.5,132.5)"/><rect x="185" y="130" width="5" height="5" transform="rotate(0,187.5,132.5)"/><rect x="195" y="130" width="5" height="5" transform="rotate(0,197.5,132.5)"/><rect x="10" y="135" width="5" height="5" transform="rotate(0,12.5,137.5)"/><rect x="15" y="135" width="5" height="5" transform="rotate(0,17.5,137.5)"/><rect x="20" y="135" width="5" height="5" transform="rotate(0,22.5,137.5)"/><rect x="25" y="135" width="5" height="5" transform="rotate(0,27.5,137.5)"/><rect x="35" y="135" width="5" height="5" transform="rotate(0,37.5,137.5)"/><rect x="45" y="135" width="5" height="5" transform="rotate(0,47.5,137.5)"/><rect x="50" y="135" width="5" height="5" transform="rotate(0,52.5,137.5)"/><rect x="65" y="135" width="5" height="5" transform="rotate(0,67.5,137.5)"/><rect x="75" y="135" width="5" height="5" transform="rotate(0,77.5,137.5)"/><rect x="80" y="135" width="5" height="5" transform="rotate(0,82.5,137.5)"/><rect x="95" y="135" width="5" height="5" transform="rotate(0,97.5,137.5)"/><rect x="100" y="135" width="5" height="5" transform="rotate(0,102.5,137.5)"/><rect x="115" y="135" width="5" height="5" transform="rotate(0,117.5,137.5)"/><rect x="120" y="135" width="5" height="5" transform="rotate(0,122.5,137.5)"/><rect x="125" y="135" width="5" height="5" transform="rotate(0,127.5,137.5)"/><rect x="135" y="135" width="5" height="5" transform="rotate(0,137.5,137.5)"/><rect x="140" y="135" width="5" height="5" transform="rotate(0,142.5,137.5)"/><rect x="145" y="135" width="5" height="5" transform="rotate(0,147.5,137.5)"/><rect x="160" y="135" width="5" height="5" transform="rotate(0,162.5,137.5)"/><rect x="170" y="135" width="5" height="5" transform="rotate(0,172.5,137.5)"/><rect x="180" y="135" width="5" height="5" transform="rotate(0,182.5,137.5)"/><rect x="185" y="135" width="5" height="5" transform="rotate(0,187.5,137.5)"/><rect x="190" y="135" width="5" height="5" transform="rotate(0,192.5,137.5)"/><rect x="200" y="135" width="5" height="5" transform="rotate(0,202.5,137.5)"/><rect x="210" y="135" width="5" height="5" transform="rotate(0,212.5,137.5)"/><rect x="15" y="140" width="5" height="5" transform="rotate(0,17.5,142.5)"/><rect x="40" y="140" width="5" height="5" transform="rotate(0,42.5,142.5)"/><rect x="45" y="140" width="5" height="5" transform="rotate(0,47.5,142.5)"/><rect x="50" y="140" width="5" height="5" transform="rotate(0,52.5,142.5)"/><rect x="60" y="140" width="5" height="5" transform="rotate(0,62.5,142.5)"/><rect x="70" y="140" width="5" height="5" transform="rotate(0,72.5,142.5)"/><rect x="75" y="140" width="5" height="5" transform="rotate(0,77.5,142.5)"/><rect x="90" y="140" width="5" height="5" transform="rotate(0,92.5,142.5)"/><rect x="95" y="140" width="5" height="5" transform="rotate(0,97.5,142.5)"/><rect x="105" y="140" width="5" height="5" transform="rotate(0,107.5,142.5)"/><rect x="110" y="140" width="5" height="5" transform="rotate(0,112.5,142.5)"/><rect x="115" y="140" width="5" height="5" transform="rotate(0,117.5,142.5)"/><rect x="125" y="140" width="5" height="5" transform="rotate(0,127.5,142.5)"/><rect x="130" y="140" width="5" height="5" transform="rotate(0,132.5,142.5)"/><rect x="135" y="140" width="5" height="5" transform="rotate(0,137.5,142.5)"/><rect x="145" y="140" width="5" height="5" transform="rotate(0,147.5,142.5)"/><rect x="155" y="140" width="5" height="5" transform="rotate(0,157.5,142.5)"/><rect x="160" y="140" width="5" height="5" transform="rotate(0,162.5,142.5)"/><rect x="170" y="140" width="5" height="5" transform="rotate(0,172.5,142.5)"/><rect x="185" y="140" width="5" height="5" transform="rotate(0,187.5,142.5)"/><rect x="210" y="140" width="5" height="5" transform="rotate(0,212.5,142.5)"/><rect x="25" y="145" width="5" height="5" transform="rotate(0,27.5,147.5)"/><rect x="55" y="145" width="5" height="5" transform="rotate(0,57.5,147.5)"/><rect x="75" y="145" width="5" height="5" transform="rotate(0,77.5,147.5)"/><rect x="85" y="145" width="5" height="5" transform="rotate(0,87.5,147.5)"/><rect x="95" y="145" width="5" height="5" transform="rotate(0,97.5,147.5)"/><rect x="105" y="145" width="5" height="5" transform="rotate(0,107.5,147.5)"/><rect x="110" y="145" width="5" height="5" transform="rotate(0,112.5,147.5)"/><rect x="120" y="145" width="5" height="5" transform="rotate(0,122.5,147.5)"/><rect x="130" y="145" width="5" height="5" transform="rotate(0,132.5,147.5)"/><rect x="140" y="145" width="5" height="5" transform="rotate(0,142.5,147.5)"/><rect x="145" y="145" width="5" height="5" transform="rotate(0,147.5,147.5)"/><rect x="150" y="145" width="5" height="5" transform="rotate(0,152.5,147.5)"/><rect x="155" y="145" width="5" height="5" transform="rotate(0,157.5,147.5)"/><rect x="160" y="145" width="5" height="5" transform="rotate(0,162.5,147.5)"/><rect x="165" y="145" width="5" height="5" transform="rotate(0,167.5,147.5)"/><rect x="170" y="145" width="5" height="5" transform="rotate(0,172.5,147.5)"/><rect x="175" y="145" width="5" height="5" transform="rotate(0,177.5,147.5)"/><rect x="190" y="145" width="5" height="5" transform="rotate(0,192.5,147.5)"/><rect x="195" y="145" width="5" height="5" transform="rotate(0,197.5,147.5)"/><rect x="210" y="145" width="5" height="5" transform="rotate(0,212.5,147.5)"/><rect x="15" y="150" width="5" height="5" transform="rotate(0,17.5,152.5)"/><rect x="20" y="150" width="5" height="5" transform="rotate(0,22.5,152.5)"/><rect x="40" y="150" width="5" height="5" transform="rotate(0,42.5,152.5)"/><rect x="60" y="150" width="5" height="5" transform="rotate(0,62.5,152.5)"/><rect x="65" y="150" width="5" height="5" transform="rotate(0,67.5,152.5)"/><rect x="70" y="150" width="5" height="5" transform="rotate(0,72.5,152.5)"/><rect x="75" y="150" width="5" height="5" transform="rotate(0,77.5,152.5)"/><rect x="90" y="150" width="5" height="5" transform="rotate(0,92.5,152.5)"/><rect x="110" y="150" width="5" height="5" transform="rotate(0,112.5,152.5)"/><rect x="130" y="150" width="5" height="5" transform="rotate(0,132.5,152.5)"/><rect x="140" y="150" width="5" height="5" transform="rotate(0,142.5,152.5)"/><rect x="145" y="150" width="5" height="5" transform="rotate(0,147.5,152.5)"/><rect x="150" y="150" width="5" height="5" transform="rotate(0,152.5,152.5)"/><rect x="155" y="150" width="5" height="5" transform="rotate(0,157.5,152.5)"/><rect x="160" y="150" width="5" height="5" transform="rotate(0,162.5,152.5)"/><rect x="175" y="150" width="5" height="5" transform="rotate(0,177.5,152.5)"/><rect x="10" y="155" width="5" height="5" transform="rotate(0,12.5,157.5)"/><rect x="20" y="155" width="5" height="5" transform="rotate(0,22.5,157.5)"/><rect x="30" y="155" width="5" height="5" transform="rotate(0,32.5,157.5)"/><rect x="35" y="155" width="5" height="5" transform="rotate(0,37.5,157.5)"/><rect x="55" y="155" width="5" height="5" transform="rotate(0,57.5,157.5)"/><rect x="60" y="155" width="5" height="5" transform="rotate(0,62.5,157.5)"/><rect x="65" y="155" width="5" height="5" transform="rotate(0,67.5,157.5)"/><rect x="80" y="155" width="5" height="5" transform="rotate(0,82.5,157.5)"/><rect x="90" y="155" width="5" height="5" transform="rotate(0,92.5,157.5)"/><rect x="95" y="155" width="5" height="5" transform="rotate(0,97.5,157.5)"/><rect x="100" y="155" width="5" height="5" transform="rotate(0,102.5,157.5)"/><rect x="115" y="155" width="5" height="5" transform="rotate(0,117.5,157.5)"/><rect x="140" y="155" width="5" height="5" transform="rotate(0,142.5,157.5)"/><rect x="155" y="155" width="5" height="5" transform="rotate(0,157.5,157.5)"/><rect x="160" y="155" width="5" height="5" transform="rotate(0,162.5,157.5)"/><rect x="180" y="155" width="5" height="5" transform="rotate(0,182.5,157.5)"/><rect x="185" y="155" width="5" height="5" transform="rotate(0,187.5,157.5)"/><rect x="190" y="155" width="5" height="5" transform="rotate(0,192.5,157.5)"/><rect x="195" y="155" width="5" height="5" transform="rotate(0,197.5,157.5)"/><rect x="200" y="155" width="5" height="5" transform="rotate(0,202.5,157.5)"/><rect x="205" y="155" width="5" height="5" transform="rotate(0,207.5,157.5)"/><rect x="210" y="155" width="5" height="5" transform="rotate(0,212.5,157.5)"/><rect x="30" y="160" width="5" height="5" transform="rotate(0,32.5,162.5)"/><rect x="40" y="160" width="5" height="5" transform="rotate(0,42.5,162.5)"/><rect x="45" y="160" width="5" height="5" transform="rotate(0,47.5,162.5)"/><rect x="50" y="160" width="5" height="5" transform="rotate(0,52.5,162.5)"/><rect x="55" y="160" width="5" height="5" transform="rotate(0,57.5,162.5)"/><rect x="95" y="160" width="5" height="5" transform="rotate(0,97.5,162.5)"/><rect x="100" y="160" width="5" height="5" transform="rotate(0,102.5,162.5)"/><rect x="120" y="160" width="5" height="5" transform="rotate(0,122.5,162.5)"/><rect x="135" y="160" width="5" height="5" transform="rotate(0,137.5,162.5)"/><rect x="145" y="160" width="5" height="5" transform="rotate(0,147.5,162.5)"/><rect x="160" y="160" width="5" height="5" transform="rotate(0,162.5,162.5)"/><rect x="170" y="160" width="5" height="5" transform="rotate(0,172.5,162.5)"/><rect x="175" y="160" width="5" height="5" transform="rotate(0,177.5,162.5)"/><rect x="190" y="160" width="5" height="5" transform="rotate(0,192.5,162.5)"/><rect x="195" y="160" width="5" height="5" transform="rotate(0,197.5,162.5)"/><rect x="200" y="160" width="5" height="5" transform="rotate(0,202.5,162.5)"/><rect x="210" y="160" width="5" height="5" transform="rotate(0,212.5,162.5)"/><rect x="20" y="165" width="5" height="5" transform="rotate(0,22.5,167.5)"/><rect x="25" y="165" width="5" height="5" transform="rotate(0,27.5,167.5)"/><rect x="30" y="165" width="5" height="5" transform="rotate(0,32.5,167.5)"/><rect x="45" y="165" width="5" height="5" transform="rotate(0,47.5,167.5)"/><rect x="50" y="165" width="5" height="5" transform="rotate(0,52.5,167.5)"/><rect x="75" y="165" width="5" height="5" transform="rotate(0,77.5,167.5)"/><rect x="80" y="165" width="5" height="5" transform="rotate(0,82.5,167.5)"/><rect x="115" y="165" width="5" height="5" transform="rotate(0,117.5,167.5)"/><rect x="120" y="165" width="5" height="5" transform="rotate(0,122.5,167.5)"/><rect x="130" y="165" width="5" height="5" transform="rotate(0,132.5,167.5)"/><rect x="145" y="165" width="5" height="5" transform="rotate(0,147.5,167.5)"/><rect x="150" y="165" width="5" height="5" transform="rotate(0,152.5,167.5)"/><rect x="155" y="165" width="5" height="5" transform="rotate(0,157.5,167.5)"/><rect x="160" y="165" width="5" height="5" transform="rotate(0,162.5,167.5)"/><rect x="175" y="165" width="5" height="5" transform="rotate(0,177.5,167.5)"/><rect x="190" y="165" width="5" height="5" transform="rotate(0,192.5,167.5)"/><rect x="195" y="165" width="5" height="5" transform="rotate(0,197.5,167.5)"/><rect x="210" y="165" width="5" height="5" transform="rotate(0,212.5,167.5)"/><rect x="10" y="170" width="5" height="5" transform="rotate(0,12.5,172.5)"/><rect x="15" y="170" width="5" height="5" transform="rotate(0,17.5,172.5)"/><rect x="25" y="170" width="5" height="5" transform="rotate(0,27.5,172.5)"/><rect x="35" y="170" width="5" height="5" transform="rotate(0,37.5,172.5)"/><rect x="40" y="170" width="5" height="5" transform="rotate(0,42.5,172.5)"/><rect x="45" y="170" width="5" height="5" transform="rotate(0,47.5,172.5)"/><rect x="50" y="170" width="5" height="5" transform="rotate(0,52.5,172.5)"/><rect x="65" y="170" width="5" height="5" transform="rotate(0,67.5,172.5)"/><rect x="70" y="170" width="5" height="5" transform="rotate(0,72.5,172.5)"/><rect x="75" y="170" width="5" height="5" transform="rotate(0,77.5,172.5)"/><rect x="80" y="170" width="5" height="5" transform="rotate(0,82.5,172.5)"/><rect x="85" y="170" width="5" height="5" transform="rotate(0,87.5,172.5)"/><rect x="100" y="170" width="5" height="5" transform="rotate(0,102.5,172.5)"/><rect x="110" y="170" width="5" height="5" transform="rotate(0,112.5,172.5)"/><rect x="120" y="170" width="5" height="5" transform="rotate(0,122.5,172.5)"/><rect x="125" y="170" width="5" height="5" transform="rotate(0,127.5,172.5)"/><rect x="130" y="170" width="5" height="5" transform="rotate(0,132.5,172.5)"/><rect x="155" y="170" width="5" height="5" transform="rotate(0,157.5,172.5)"/><rect x="165" y="170" width="5" height="5" transform="rotate(0,167.5,172.5)"/><rect x="170" y="170" width="5" height="5" transform="rotate(0,172.5,172.5)"/><rect x="175" y="170" width="5" height="5" transform="rotate(0,177.5,172.5)"/><rect x="180" y="170" width="5" height="5" transform="rotate(0,182.5,172.5)"/><rect x="185" y="170" width="5" height="5" transform="rotate(0,187.5,172.5)"/><rect x="190" y="170" width="5" height="5" transform="rotate(0,192.5,172.5)"/><rect x="195" y="170" width="5" height="5" transform="rotate(0,197.5,172.5)"/><rect x="205" y="170" width="5" height="5" transform="rotate(0,207.5,172.5)"/><rect x="50" y="175" width="5" height="5" transform="rotate(0,52.5,177.5)"/><rect x="55" y="175" width="5" height="5" transform="rotate(0,57.5,177.5)"/><rect x="75" y="175" width="5" height="5" transform="rotate(0,77.5,177.5)"/><rect x="80" y="175" width="5" height="5" transform="rotate(0,82.5,177.5)"/><rect x="100" y="175" width="5" height="5" transform="rotate(0,102.5,177.5)"/><rect x="125" y="175" width="5" height="5" transform="rotate(0,127.5,177.5)"/><rect x="135" y="175" width="5" height="5" transform="rotate(0,137.5,177.5)"/><rect x="140" y="175" width="5" height="5" transform="rotate(0,142.5,177.5)"/><rect x="145" y="175" width="5" height="5" transform="rotate(0,147.5,177.5)"/><rect x="155" y="175" width="5" height="5" transform="rotate(0,157.5,177.5)"/><rect x="160" y="175" width="5" height="5" transform="rotate(0,162.5,177.5)"/><rect x="165" y="175" width="5" height="5" transform="rotate(0,167.5,177.5)"/><rect x="170" y="175" width="5" height="5" transform="rotate(0,172.5,177.5)"/><rect x="190" y="175" width="5" height="5" transform="rotate(0,192.5,177.5)"/><rect x="195" y="175" width="5" height="5" transform="rotate(0,197.5,177.5)"/><rect x="210" y="175" width="5" height="5" transform="rotate(0,212.5,177.5)"/><rect x="55" y="180" width="5" height="5" transform="rotate(0,57.5,182.5)"/><rect x="80" y="180" width="5" height="5" transform="rotate(0,82.5,182.5)"/><rect x="95" y="180" width="5" height="5" transform="rotate(0,97.5,182.5)"/><rect x="100" y="180" width="5" height="5" transform="rotate(0,102.5,182.5)"/><rect x="110" y="180" width="5" height="5" transform="rotate(0,112.5,182.5)"/><rect x="115" y="180" width="5" height="5" transform="rotate(0,117.5,182.5)"/><rect x="125" y="180" width="5" height="5" transform="rotate(0,127.5,182.5)"/><rect x="130" y="180" width="5" height="5" transform="rotate(0,132.5,182.5)"/><rect x="145" y="180" width="5" height="5" transform="rotate(0,147.5,182.5)"/><rect x="160" y="180" width="5" height="5" transform="rotate(0,162.5,182.5)"/><rect x="165" y="180" width="5" height="5" transform="rotate(0,167.5,182.5)"/><rect x="170" y="180" width="5" height="5" transform="rotate(0,172.5,182.5)"/><rect x="180" y="180" width="5" height="5" transform="rotate(0,182.5,182.5)"/><rect x="190" y="180" width="5" height="5" transform="rotate(0,192.5,182.5)"/><rect x="195" y="180" width="5" height="5" transform="rotate(0,197.5,182.5)"/><rect x="210" y="180" width="5" height="5" transform="rotate(0,212.5,182.5)"/><rect x="70" y="185" width="5" height="5" transform="rotate(0,72.5,187.5)"/><rect x="75" y="185" width="5" height="5" transform="rotate(0,77.5,187.5)"/><rect x="80" y="185" width="5" height="5" transform="rotate(0,82.5,187.5)"/><rect x="85" y="185" width="5" height="5" transform="rotate(0,87.5,187.5)"/><rect x="95" y="185" width="5" height="5" transform="rotate(0,97.5,187.5)"/><rect x="100" y="185" width="5" height="5" transform="rotate(0,102.5,187.5)"/><rect x="110" y="185" width="5" height="5" transform="rotate(0,112.5,187.5)"/><rect x="125" y="185" width="5" height="5" transform="rotate(0,127.5,187.5)"/><rect x="140" y="185" width="5" height="5" transform="rotate(0,142.5,187.5)"/><rect x="145" y="185" width="5" height="5" transform="rotate(0,147.5,187.5)"/><rect x="165" y="185" width="5" height="5" transform="rotate(0,167.5,187.5)"/><rect x="170" y="185" width="5" height="5" transform="rotate(0,172.5,187.5)"/><rect x="190" y="185" width="5" height="5" transform="rotate(0,192.5,187.5)"/><rect x="195" y="185" width="5" height="5" transform="rotate(0,197.5,187.5)"/><rect x="205" y="185" width="5" height="5" transform="rotate(0,207.5,187.5)"/><rect x="210" y="185" width="5" height="5" transform="rotate(0,212.5,187.5)"/><rect x="50" y="190" width="5" height="5" transform="rotate(0,52.5,192.5)"/><rect x="55" y="190" width="5" height="5" transform="rotate(0,57.5,192.5)"/><rect x="60" y="190" width="5" height="5" transform="rotate(0,62.5,192.5)"/><rect x="80" y="190" width="5" height="5" transform="rotate(0,82.5,192.5)"/><rect x="90" y="190" width="5" height="5" transform="rotate(0,92.5,192.5)"/><rect x="110" y="190" width="5" height="5" transform="rotate(0,112.5,192.5)"/><rect x="115" y="190" width="5" height="5" transform="rotate(0,117.5,192.5)"/><rect x="130" y="190" width="5" height="5" transform="rotate(0,132.5,192.5)"/><rect x="135" y="190" width="5" height="5" transform="rotate(0,137.5,192.5)"/><rect x="140" y="190" width="5" height="5" transform="rotate(0,142.5,192.5)"/><rect x="145" y="190" width="5" height="5" transform="rotate(0,147.5,192.5)"/><rect x="165" y="190" width="5" height="5" transform="rotate(0,167.5,192.5)"/><rect x="170" y="190" width="5" height="5" transform="rotate(0,172.5,192.5)"/><rect x="175" y="190" width="5" height="5" transform="rotate(0,177.5,192.5)"/><rect x="180" y="190" width="5" height="5" transform="rotate(0,182.5,192.5)"/><rect x="185" y="190" width="5" height="5" transform="rotate(0,187.5,192.5)"/><rect x="190" y="190" width="5" height="5" transform="rotate(0,192.5,192.5)"/><rect x="195" y="190" width="5" height="5" transform="rotate(0,197.5,192.5)"/><rect x="205" y="190" width="5" height="5" transform="rotate(0,207.5,192.5)"/><rect x="210" y="190" width="5" height="5" transform="rotate(0,212.5,192.5)"/><rect x="60" y="195" width="5" height="5" transform="rotate(0,62.5,197.5)"/><rect x="65" y="195" width="5" height="5" transform="rotate(0,67.5,197.5)"/><rect x="70" y="195" width="5" height="5" transform="rotate(0,72.5,197.5)"/><rect x="75" y="195" width="5" height="5" transform="rotate(0,77.5,197.5)"/><rect x="80" y="195" width="5" height="5" transform="rotate(0,82.5,197.5)"/><rect x="85" y="195" width="5" height="5" transform="rotate(0,87.5,197.5)"/><rect x="90" y="195" width="5" height="5" transform="rotate(0,92.5,197.5)"/><rect x="95" y="195" width="5" height="5" transform="rotate(0,97.5,197.5)"/><rect x="100" y="195" width="5" height="5" transform="rotate(0,102.5,197.5)"/><rect x="105" y="195" width="5" height="5" transform="rotate(0,107.5,197.5)"/><rect x="125" y="195" width="5" height="5" transform="rotate(0,127.5,197.5)"/><rect x="145" y="195" width="5" height="5" transform="rotate(0,147.5,197.5)"/><rect x="150" y="195" width="5" height="5" transform="rotate(0,152.5,197.5)"/><rect x="160" y="195" width="5" height="5" transform="rotate(0,162.5,197.5)"/><rect x="170" y="195" width="5" height="5" transform="rotate(0,172.5,197.5)"/><rect x="185" y="195" width="5" height="5" transform="rotate(0,187.5,197.5)"/><rect x="70" y="200" width="5" height="5" transform="rotate(0,72.5,202.5)"/><rect x="80" y="200" width="5" height="5" transform="rotate(0,82.5,202.5)"/><rect x="85" y="200" width="5" height="5" transform="rotate(0,87.5,202.5)"/><rect x="95" y="200" width="5" height="5" transform="rotate(0,97.5,202.5)"/><rect x="100" y="200" width="5" height="5" transform="rotate(0,102.5,202.5)"/><rect x="105" y="200" width="5" height="5" transform="rotate(0,107.5,202.5)"/><rect x="120" y="200" width="5" height="5" transform="rotate(0,122.5,202.5)"/><rect x="125" y="200" width="5" height="5" transform="rotate(0,127.5,202.5)"/><rect x="130" y="200" width="5" height="5" transform="rotate(0,132.5,202.5)"/><rect x="135" y="200" width="5" height="5" transform="rotate(0,137.5,202.5)"/><rect x="140" y="200" width="5" height="5" transform="rotate(0,142.5,202.5)"/><rect x="145" y="200" width="5" height="5" transform="rotate(0,147.5,202.5)"/><rect x="155" y="200" width="5" height="5" transform="rotate(0,157.5,202.5)"/><rect x="170" y="200" width="5" height="5" transform="rotate(0,172.5,202.5)"/><rect x="175" y="200" width="5" height="5" transform="rotate(0,177.5,202.5)"/><rect x="195" y="200" width="5" height="5" transform="rotate(0,197.5,202.5)"/><rect x="200" y="200" width="5" height="5" transform="rotate(0,202.5,202.5)"/><rect x="210" y="200" width="5" height="5" transform="rotate(0,212.5,202.5)"/><rect x="50" y="205" width="5" height="5" transform="rotate(0,52.5,207.5)"/><rect x="65" y="205" width="5" height="5" transform="rotate(0,67.5,207.5)"/><rect x="80" y="205" width="5" height="5" transform="rotate(0,82.5,207.5)"/><rect x="100" y="205" width="5" height="5" transform="rotate(0,102.5,207.5)"/><rect x="130" y="205" width="5" height="5" transform="rotate(0,132.5,207.5)"/><rect x="140" y="205" width="5" height="5" transform="rotate(0,142.5,207.5)"/><rect x="155" y="205" width="5" height="5" transform="rotate(0,157.5,207.5)"/><rect x="160" y="205" width="5" height="5" transform="rotate(0,162.5,207.5)"/><rect x="165" y="205" width="5" height="5" transform="rotate(0,167.5,207.5)"/><rect x="170" y="205" width="5" height="5" transform="rotate(0,172.5,207.5)"/><rect x="175" y="205" width="5" height="5" transform="rotate(0,177.5,207.5)"/><rect x="180" y="205" width="5" height="5" transform="rotate(0,182.5,207.5)"/><rect x="185" y="205" width="5" height="5" transform="rotate(0,187.5,207.5)"/><rect x="195" y="205" width="5" height="5" transform="rotate(0,197.5,207.5)"/><rect x="205" y="205" width="5" height="5" transform="rotate(0,207.5,207.5)"/><rect x="210" y="205" width="5" height="5" transform="rotate(0,212.5,207.5)"/><rect x="75" y="210" width="5" height="5" transform="rotate(0,77.5,212.5)"/><rect x="80" y="210" width="5" height="5" transform="rotate(0,82.5,212.5)"/><rect x="90" y="210" width="5" height="5" transform="rotate(0,92.5,212.5)"/><rect x="95" y="210" width="5" height="5" transform="rotate(0,97.5,212.5)"/><rect x="105" y="210" width="5" height="5" transform="rotate(0,107.5,212.5)"/><rect x="115" y="210" width="5" height="5" transform="rotate(0,117.5,212.5)"/><rect x="120" y="210" width="5" height="5" transform="rotate(0,122.5,212.5)"/><rect x="125" y="210" width="5" height="5" transform="rotate(0,127.5,212.5)"/><rect x="130" y="210" width="5" height="5" transform="rotate(0,132.5,212.5)"/><rect x="145" y="210" width="5" height="5" transform="rotate(0,147.5,212.5)"/><rect x="150" y="210" width="5" height="5" transform="rotate(0,152.5,212.5)"/><rect x="155" y="210" width="5" height="5" transform="rotate(0,157.5,212.5)"/><rect x="170" y="210" width="5" height="5" transform="rotate(0,172.5,212.5)"/><rect x="175" y="210" width="5" height="5" transform="rotate(0,177.5,212.5)"/><rect x="180" y="210" width="5" height="5" transform="rotate(0,182.5,212.5)"/><rect x="185" y="210" width="5" height="5" transform="rotate(0,187.5,212.5)"/><rect x="190" y="210" width="5" height="5" transform="rotate(0,192.5,212.5)"/><rect x="205" y="210" width="5" height="5" transform="rotate(0,207.5,212.5)"/></g></svg>