<svg id="Layer_41" data-name="Layer 41" xmlns="http://www.w3.org/2000/svg" viewBox="0 0 263.27 180.07"><defs><style>.cls-1{fill:#d1c199;}.cls-2{fill:#a2b9c2;}.cls-3{fill:#98aaa6;}.cls-4{fill:#8ea19b;}.cls-5{fill:#7a8e89;}.cls-6{fill:#6b7d78;}.cls-7{fill:#d7c9a6;}.cls-8{fill:#eae1c4;}.cls-9{fill:#5198b7;}.cls-10{fill:#2d7faa;}.cls-11{fill:#804c3e;}.cls-12{fill:#644c4c;}.cls-13{fill:#574242;}.cls-14{fill:#695353;}.cls-15{fill:#ddd1ae;}.cls-16{fill:#287596;}.cls-17{fill:#edba85;}.cls-18{fill:#e89c69;}.cls-19{fill:#d27558;}.cls-20{fill:#f0e9cf;}.cls-21{fill:#96aaa5;}.cls-22{fill:#adbfba;}.cls-23{fill:#5b4a4a;}</style></defs><polygon class="cls-1" points="93.83 70.5 86.66 70.5 90.46 169.63 93.07 169.63 93.83 70.5"/><path class="cls-2" d="M188.9,141.3l1.11-6-3.09-.57-1.12,6a6.67,6.67,0,0,1-2.42,4,6.69,6.69,0,0,0-2.46,4.09l-2.07,12.67a1.62,1.62,0,0,0,1.48,1.68l5.62,1a1.61,1.61,0,0,0,2-1l2.63-12.57a6.7,6.7,0,0,0-.82-4.7A6.69,6.69,0,0,1,188.9,141.3Z"/><path class="cls-2" d="M242.11,144.05l.81-6.05-3.12-.42-.81,6a6.71,6.71,0,0,1-2.22,4.08,6.62,6.62,0,0,0-2.25,4.2l-1.43,12.76a1.63,1.63,0,0,0,1.56,1.61l5.68.76a1.61,1.61,0,0,0,1.92-1.14l2-12.68a6.7,6.7,0,0,0-1.06-4.65A6.71,6.71,0,0,1,242.11,144.05Z"/><path class="cls-2" d="M236.18,161.48l-5.16.45.2,2.28,5.16-.45a6.29,6.29,0,0,1,3.77.89,6.23,6.23,0,0,0,3.89.88l10.84-1.14a1.24,1.24,0,0,0,1.06-1.38l-.36-4.15a1.23,1.23,0,0,0-1.28-1.17l-10.88.74a6.18,6.18,0,0,0-3.67,1.53A6.26,6.26,0,0,1,236.18,161.48Z"/><path class="cls-2" d="M226.47,143.05l6.53-4.67-2.5-3.48L224,139.57a8.59,8.59,0,0,1-5.95,1.48,8.64,8.64,0,0,0-6.1,1.59l-13.5,10.14a2.18,2.18,0,0,0-.09,3l4.53,6.33a2.2,2.2,0,0,0,2.87.89l13.95-9.53a8.59,8.59,0,0,0,3.46-5.26A8.67,8.67,0,0,1,226.47,143.05Z"/><path class="cls-2" d="M157.65,161.44l-6.89.25.15,3.9,6.88-.25a7.19,7.19,0,0,1,5,1.88,7.15,7.15,0,0,0,5.12,1.87l14.48-.87c.86-.06,1.52-1.05,1.48-2.24l-.27-7.09c0-1.19-.77-2.14-1.64-2.13l-14.5.19a7.2,7.2,0,0,0-5,2.25A7.14,7.14,0,0,1,157.65,161.44Z"/><path class="cls-2" d="M192,161.85l6.41,2.53,1.43-3.63-6.41-2.53a7.19,7.19,0,0,1-3.79-3.72,7.17,7.17,0,0,0-3.94-3.77l-13.61-5c-.81-.3-1.81.35-2.25,1.46l-2.61,6.59a2,2,0,0,0,.65,2.61L181.2,162a7.15,7.15,0,0,0,5.45-.06A7.19,7.19,0,0,1,192,161.85Z"/><polygon class="cls-2" points="250.13 164.95 239.04 162.88 236.65 153.45 226.65 150.69 214.91 154.37 203.82 145.86 192.52 149.08 186.22 155.29 174.48 157.36 171.22 163.8 164.7 166.33 163.94 169.63 252.95 169.63 250.13 164.95"/><path class="cls-3" d="M179.39,32.52V23.69H175.8v8.83a11.35,11.35,0,0,1-1.89,6.28A11.34,11.34,0,0,0,172,45.27l.31,18.59a2,2,0,0,0,2,2h6.51a2,2,0,0,0,2-2l.31-18.59a11.34,11.34,0,0,0-1.89-6.47A11.35,11.35,0,0,1,179.39,32.52Z"/><path class="cls-4" d="M174.26,38.23c-.11.19-.23.38-.35.57A11.34,11.34,0,0,0,172,45.27l.31,18.59a2,2,0,0,0,2,2h6.51a2,2,0,0,0,2-2l.08-4.72C179.87,59.36,176.15,50.27,174.26,38.23Z"/><path class="cls-5" d="M170.35,38.37V31.08h-4.42v7.29a7.35,7.35,0,0,1-2.34,5.17,7.3,7.3,0,0,0-2.33,5.34l.39,15.33c0,.92,1.12,1.65,2.47,1.65h8c1.35,0,2.45-.73,2.47-1.65L175,48.88a7.32,7.32,0,0,0-2.34-5.34A7.34,7.34,0,0,1,170.35,38.37Z"/><path class="cls-5" d="M153.72,29.09V19.34H149.3v9.75A11.57,11.57,0,0,1,147,36a11.55,11.55,0,0,0-2.33,7.14L145,63.66a2.37,2.37,0,0,0,2.47,2.2h8a2.37,2.37,0,0,0,2.47-2.2l.39-20.51A11.61,11.61,0,0,0,156.06,36,11.5,11.5,0,0,1,153.72,29.09Z"/><path class="cls-6" d="M154,56.88c-3.93,0-7.21-8.33-8-19.37a11.41,11.41,0,0,0-1.38,5.64L145,63.66a2.37,2.37,0,0,0,2.47,2.2h8a2.37,2.37,0,0,0,2.47-2.2l.2-10.3C157,55.59,155.52,56.88,154,56.88Z"/><polygon class="cls-7" points="71.08 116.95 66.37 116.95 68.86 169.63 70.58 169.63 71.08 116.95"/><polygon class="cls-7" points="44.7 116.95 39.99 116.95 42.49 169.63 44.2 169.63 44.7 116.95"/><rect class="cls-8" x="22.31" y="111.73" width="48.48" height="7.17"/><path class="cls-8" d="M38,44.85c-1.59-1-29.71-.14-30.43,2.46S22,115.14,22,115.14l28.55-2.76C50.06,109,39.63,45.86,38,44.85Z"/><path class="cls-9" d="M67.29,28.66C38.85,35,117.41,65.81,117.41,65.81L129.3,45C113.77,36.85,93.91,22.77,67.29,28.66Z"/><path class="cls-10" d="M117.94,46.72c-7.24-3.63-11.77-9.42-10.12-12.94h0C96.34,28.66,83,25.19,67.29,28.66,38.85,35,117.41,65.81,117.41,65.81l9.36-16.38A25.92,25.92,0,0,1,117.94,46.72Z"/><path class="cls-11" d="M110.85,15.19C104.08,7.29,96.32,9.44,95.3,23l8.59,7.39c11.41-.91,16.19-9.06,16.19-9.06S115.86,21,110.85,15.19Z"/><path class="cls-11" d="M107.58,18.25a16.73,16.73,0,0,1-5.86-7.46c-3.31.83-5.87,4.83-6.42,12.22l8.59,7.39c11.41-.91,16.19-9.06,16.19-9.06l-.35-.05C116.17,22.18,111.57,21.17,107.58,18.25Z"/><polygon class="cls-8" points="161 70.5 153.83 70.5 157.63 169.63 160.24 169.63 161 70.5"/><polygon class="cls-7" points="154.48 87.6 160.87 87.6 161 70.5 153.83 70.5 154.48 87.6"/><polygon class="cls-1" points="197.74 70.5 190.56 70.5 194.37 169.63 196.98 169.63 197.74 70.5"/><path class="cls-12" d="M46.58,113.69l45.8,2.61,49,53.33L106,95.43,68.39,89.56l-9.34-6.09L40.5,92.82S38.76,108.47,46.58,113.69Z"/><path class="cls-13" d="M107.2,97.94c-4.31,2.14-11.42.84-20.61.84-13.75,0-25.8-.48-25.8-4.44,0-2,2.75-3.75,7.2-5l-8.94-5.83L40.5,92.82s-1.74,15.65,6.08,20.87l45.8,2.61,49,53.33Z"/><path class="cls-14" d="M28.29,115.14l44,1.16,46.14,53.33L85.08,95.43,52,90.21,48.49,85,23.37,92.82S20.91,109.92,28.29,115.14Z"/><path class="cls-13" d="M86.59,98.78c-4,2.2-10.84,4.07-18.68,4.87-12.84,1.32-23.56-.71-24-4.53-.3-2.93,5.57-6.06,14.11-8l-6-1L48.49,85,23.37,92.82s-2.46,17.1,4.92,22.32l44,1.16,46.14,53.33Z"/><path class="cls-9" d="M65.79,87.17c-25.66,3-41.31,21.46-43.26,14.78-3.05-10.4-.66-27.39,9.56-43.26,17-26.36,32.61-31.16,42-32.46s23,7.9,25,14.42-4.57,24.56-4.57,24.56C78,65.21,70.61,66.73,65.79,87.17Z"/><path class="cls-10" d="M99.7,40.14c-2-5.84-13.88-13.54-23-14A39.82,39.82,0,0,1,76,33.25c-1.82,9.55-6.47,16.69-10.39,16S60,40.11,61.81,30.55c0-.28.12-.55.17-.82-8.51,3.9-10.32,39.76-29.89,29C21.87,74.56,19.48,91.55,22.53,102c1.95,6.68,17.6-11.74,43.26-14.78,4.82-20.44,12.17-22,28.69-22C94.48,65.21,102.31,47.6,99.7,40.14Z"/><path class="cls-9" d="M61.08,74.27c-6.66,0-17.39,1.16-21.37,10.25a21.89,21.89,0,0,0-1.83,12.24C44.66,93.08,53.5,89,64.13,87.4,65.75,80.08,68.32,74.27,61.08,74.27Z"/><path class="cls-15" d="M99.93,30.67s-2.55,9.4-9.58,8.75S83,25.86,83,25.86l-4.18.5c-.34,7,1.19,13.51,5.66,19.07l5.22-3.26,3.91,3.62c7-4.85,10.46-13.61,10.46-13.61Z"/><path class="cls-9" d="M54.19,65.86c-17.71-8-6.41-33.57,13.7-38.4l.17,0a4.52,4.52,0,0,1,5.39,5.06c-.22,2.13,1.06,4.75,5.31,7.73,5.67,4-8.7,23.48-8.7,23.48Z"/><path class="cls-10" d="M79.92,41a16.4,16.4,0,0,0-4.38-5.6C72.89,43.55,62,51.65,57.21,49.49c-3.75-1.67-5-7.45-3.52-14.11C43.76,45.06,40.13,60.07,53,65.86l17.1-2.17S83,47.25,79.92,41Z"/><path class="cls-16" d="M119,44.56c-7.13,3.31-7.88,11.81-1.65,18.94s18.71,6.76,24.56,6.28c7.67-.63,6.92-11.35.87-18.37S126.1,41.28,119,44.56Z"/><path class="cls-16" d="M81.28,50.67c.5-7.94-6.26-12.55-15.08-10.24S50,51,49.66,58.83s6.32,12.25,15,10S80.77,58.54,81.28,50.67Z"/><path class="cls-17" d="M112.35,56.61C100.64,53.55,85.13,42,72,41.81,56,41.63,52.82,60.36,55,64.7s58.11,1.16,58.11,1.16Z"/><path class="cls-18" d="M93.23,49.23c-9.84,8.56-26.46,6.76-25.88-.5.22-2.7,2.35-5.06,5.82-6.88-.41,0-.82,0-1.22,0C56,41.63,52.82,60.36,55,64.7s58.11,1.16,58.11,1.16l-.16-2C111.94,59.2,105.46,53.69,93.23,49.23Z"/><path class="cls-17" d="M93.9,61.66a6,6,0,0,1,2.58-6c7.8-4.55,20.21-11,29.23-11.08,12.47-.17,20.32,16.71,19.52,20.83-.67,3.45-35.61,1.52-47.07.79C96,66.05,94.29,64.18,93.9,61.66Z"/><path class="cls-18" d="M123.79,62c-12.82,3.9-24.82,3.3-29.94-1,0,.21,0,.41.05.61.39,2.52,2.14,4.39,4.26,4.52,11.46.73,46.4,2.66,47.07-.79.39-2-1.28-7-4.52-11.64A54.94,54.94,0,0,1,123.79,62Z"/><polygon class="cls-8" points="49.63 116.95 44.92 116.95 47.41 169.63 49.13 169.63 49.63 116.95"/><polygon class="cls-8" points="27.02 116.95 22.31 116.95 24.81 169.63 26.52 169.63 27.02 116.95"/><polygon class="cls-8" points="57.09 70.5 49.92 70.5 53.72 169.63 56.33 169.63 57.09 70.5"/><polygon class="cls-7" points="50.58 87.82 56.96 87.82 57.09 70.5 49.92 70.5 50.58 87.82"/><path class="cls-19" d="M80.43,26.69c6.6-2,12.48-4.54,17.8-9.77L103.79,31l-6.27,6.18s-4.26,5.72-9.67,3.8C79.59,38,80.43,26.69,80.43,26.69Z"/><path class="cls-17" d="M87.09,33.69c-.46,3.19,7.86,10,10.07,8.06,1.51-1.34,14-16.56,14.86-17.93s-8.09-7.67-10-8S87.44,31.28,87.09,33.69Z"/><path class="cls-11" d="M88.11,23.64l4.2,1.19,4,0s10.22-9.4,5.07-11.84C97.08,10.91,92.8,20.61,88.11,23.64Z"/><path class="cls-17" d="M95.7,22.34c.36-2.09-.28-3.73-1.42-3.66s-2.35,1.81-2.7,3.89.28,3.73,1.42,3.66S95.35,24.43,95.7,22.34Z"/><path class="cls-19" d="M95,22.87c.23-1.35-.18-2.42-.92-2.38S92.53,21.67,92.3,23s.19,2.42.92,2.38S94.75,24.23,95,22.87Z"/><path class="cls-17" d="M94.47,23.92c.17-1-.14-1.78-.68-1.75S92.66,23,92.49,24s.13,1.78.68,1.75S94.3,24.93,94.47,23.92Z"/><path class="cls-20" d="M112.94,169.63h14.62s-9.68-5.58-11.87-5.73S112.94,169.63,112.94,169.63Z"/><path class="cls-20" d="M136.19,169.63h14.63s-9.69-5.58-11.87-5.73S136.19,169.63,136.19,169.63Z"/><path class="cls-21" d="M155,37.53a10.25,10.25,0,0,1-2-5.51c-1.77,1.45-3,4.56-3,8.17,0,5,2.35,9,5.25,9a3.43,3.43,0,0,0,1.78-.54l.09-4.84A10.24,10.24,0,0,0,155,37.53Z"/><path class="cls-6" d="M149.3,28c1.72-2.77,3.27-3.61,4.42,0V22.24H149.3Z"/><rect class="cls-5" x="148.46" y="18.47" width="6.09" height="5.11" rx="2.25"/><path class="cls-21" d="M152.29,19h-1.42a1.18,1.18,0,0,0,0,2.36h1.42a1.18,1.18,0,0,0,0-2.36Z"/><path class="cls-6" d="M165.93,36.59c1.72-2.77,3.27-3.61,4.42,0V30.87h-4.42Z"/><rect class="cls-5" x="165.09" y="27.1" width="6.09" height="5.11" rx="2.25"/><path class="cls-21" d="M168.84,27.6h-1.41a1.18,1.18,0,0,0,0,2.36h1.41a1.18,1.18,0,1,0,0-2.36Z"/><path class="cls-21" d="M171.45,48a18.59,18.59,0,0,0,2-.12,5.69,5.69,0,0,0-1.67-3.93,6.45,6.45,0,0,1-1.2-1.77,11.92,11.92,0,0,0-4.74,1.09,7.08,7.08,0,0,1-.57.68,7.13,7.13,0,0,0-.95,1.29C164.55,46.74,167.65,48,171.45,48Z"/><path class="cls-6" d="M170.24,61.59c-3.75,0-6.84-7.67-7.18-17.47a7,7,0,0,0-1.8,4.76l.39,15.33c0,.92,1.12,1.65,2.47,1.65h8c1.35,0,2.45-.73,2.47-1.65l.18-7C173.56,60,172,61.59,170.24,61.59Z"/><path class="cls-21" d="M170,40.19c-.09-.76-.52-1.33-1-1.27s-.72.71-.62,1.46.58.66,1,.6S170.11,40.94,170,40.19Z"/><path class="cls-22" d="M178.78,34.66c-.09-1.65-.44-3-.78-3s-.53,1.37-.44,3,.48,1.56.81,1.54S178.88,36.32,178.78,34.66Z"/><path class="cls-21" d="M152.75,29.61c0-1.34-.14-2.44-.41-2.45s-.51,1.08-.55,2.42.26,1.29.52,1.3S152.7,31,152.75,29.61Z"/><path class="cls-22" d="M180.66,39.13a6.8,6.8,0,0,1-1-1.75,7.35,7.35,0,0,0-3.28,1.09,9.56,9.56,0,0,1,3.27,4.7c.28,0,.56,0,.85,0A8.8,8.8,0,0,0,182,43,6.85,6.85,0,0,0,180.66,39.13Z"/><path class="cls-5" d="M175.8,28.09a4.64,4.64,0,0,0,3.59.86V23.69H175.8Z"/><path class="cls-3" d="M178.83,23h-2.48a1.19,1.19,0,0,0,0,2.37h2.48a1.19,1.19,0,1,0,0-2.37Z"/><path class="cls-22" d="M178.86,23.44H177a.4.4,0,0,0,0,.8h1.88a.4.4,0,1,0,0-.8Z"/><path class="cls-17" d="M88.62,54.29A6,6,0,0,0,87,59.52a3.48,3.48,0,0,0,2.9,3c.73,0,2.79-1.26,1.54-3s0-2.72,0-2.72Z"/><path class="cls-17" d="M88.09,53.83c2.07-3.43,10.18-2.92,13.63-1.7s1.66,10-.19,11.41-4.39,1.76-6.1.2-3.71.39-4.52,0C88.88,62.88,86.78,56,88.09,53.83Z"/><path class="cls-17" d="M88.79,59.26a5.76,5.76,0,0,0,.29,5.38,3.53,3.53,0,0,0,3.81,1.68c.7-.25,2.2-2.17.42-3.29s-1-2.5-1-2.5Z"/><path class="cls-19" d="M99.9,30.09c-.33,2.92-.79,4.62-1.82,4.73a2.33,2.33,0,0,1-1.72-1l0,0s1.22,1.92,2.29,1.9S99.89,33.68,99.9,30.09Z"/><path class="cls-23" d="M99.17,28.08c.79-.83,1-1.9.53-2.37s-1.55-.19-2.35.64-1,1.91-.54,2.38S98.37,28.92,99.17,28.08Z"/><path class="cls-23" d="M104.12,32.2c.8-.84,1-1.9.54-2.38s-1.55-.19-2.35.65-1,1.9-.54,2.38S103.32,33,104.12,32.2Z"/><path class="cls-17" d="M99.56,25a2,2,0,0,1,1.18,2.56A2,2,0,0,1,98,28a2,2,0,0,1-1.19-2.56A2.06,2.06,0,0,1,99.56,25Z"/><path class="cls-17" d="M104.7,29.4a2,2,0,0,1,.66,2.74,2,2,0,0,1-2.82-.17,2,2,0,0,1-.66-2.74A2,2,0,0,1,104.7,29.4Z"/><path class="cls-19" d="M94.65,34.94c-.48-.59-1.05-.91-1.27-.73s.24.5.72,1.09.77,1.22,1,1S95.13,35.53,94.65,34.94Z"/><path class="cls-11" d="M107.23,31l-2.42-2.61a.54.54,0,0,0-.79,0l-.89.91a.62.62,0,0,0,0,.84l2.41,2.6a.53.53,0,0,0,.79,0l.89-.91A.62.62,0,0,0,107.23,31Z"/><path class="cls-11" d="M101.4,24.82,98.11,23.1a.59.59,0,0,0-.79.26l-.63,1.09a.56.56,0,0,0,.2.78L100.18,27a.62.62,0,0,0,.8-.26l.62-1.09A.56.56,0,0,0,101.4,24.82Z"/><rect class="cls-8" x="45.57" y="65.86" width="157.6" height="5.22"/></svg>